<svg width="120" height="16" viewBox="0 0 120 16" fill="none" xmlns="http://www.w3.org/2000/svg">
<g clip-path="url(#clip0_1723_19887)">
<path d="M9.3035 -0.0015348C4.96011 -0.0015348 0.488744 3.63994 0.488744 8.16794C0.433118 8.81288 0.513834 9.46254 0.725823 10.0742C0.937813 10.6858 1.27625 11.2462 1.71906 11.7184C2.16188 12.1906 2.6992 12.5638 3.29599 12.8146C3.89277 13.0654 4.53567 13.1881 5.18286 13.1739C6.63315 13.1709 8.02645 12.6086 9.07273 11.6042C10.119 10.5999 10.7376 9.23048 10.8 7.78152C10.8375 7.3921 10.7955 6.99915 10.6765 6.62647C10.5575 6.25379 10.3641 5.90951 10.1079 5.61385C9.8517 5.31819 9.53811 5.07735 9.18616 4.90652C8.83422 4.73568 8.45119 4.63823 8.06041 4.61986C7.58299 4.62601 7.11257 4.73605 6.6818 4.94198C6.25104 5.1479 5.87026 5.44509 5.56567 5.81277L5.64439 5.87046C6.16798 5.39018 6.84801 5.11606 7.55831 5.09883C7.85761 5.09567 8.1543 5.15392 8.43015 5.2701C8.706 5.38628 8.95511 5.55798 9.16197 5.77431C9.36884 5.99063 9.52909 6.24714 9.63283 6.52791C9.73656 6.80868 9.78156 7.10766 9.76504 7.40652C9.71831 8.40575 9.28924 9.34871 8.56672 10.0405C7.8442 10.7324 6.88345 11.1201 5.88313 11.1235C5.48346 11.1337 5.08606 11.0604 4.71606 10.9089C4.34606 10.7575 4.01153 10.5312 3.73379 10.2437C3.45605 9.95608 3.24112 9.6139 3.10263 9.23885C2.96413 8.8638 2.90522 8.46364 2.9294 8.06457C2.9294 5.30273 5.749 2.99786 8.40131 2.99786C9.0204 2.99989 9.63273 3.12729 10.201 3.37286C10.7693 3.61844 11.2817 3.97689 11.7075 4.42635C12.1332 4.87581 12.4634 5.40688 12.6779 5.98765C12.8923 6.56841 12.9867 7.18666 12.9552 7.80496C12.9552 11.9896 9.04381 15.2977 4.93796 15.2977C4.4087 15.2995 3.88113 15.2384 3.3663 15.1157L3.32318 15.1788C4.36913 15.727 5.53425 16.0086 6.71516 15.9985C9.16054 15.9263 11.4877 14.9292 13.227 13.2088C14.9664 11.4884 15.9885 9.17248 16.0875 6.72803C16.1088 5.83381 15.9477 4.9448 15.6136 4.11505C15.2795 3.2853 14.7797 2.53226 14.1447 1.90231C13.5097 1.27236 12.7528 0.778991 11.9204 0.45159C11.088 0.12419 10.1975 -0.0300828 9.3035 -0.0015348Z" fill="#211F20"/>
<path d="M9.3035 -0.0015348C4.96011 -0.0015348 0.488744 3.63994 0.488744 8.16794C0.433118 8.81288 0.513834 9.46254 0.725823 10.0742C0.937813 10.6858 1.27625 11.2462 1.71906 11.7184C2.16188 12.1906 2.6992 12.5638 3.29599 12.8146C3.89277 13.0654 4.53567 13.1881 5.18286 13.1739C6.63315 13.1709 8.02645 12.6086 9.07273 11.6042C10.119 10.5999 10.7376 9.23048 10.8 7.78152C10.8375 7.3921 10.7955 6.99915 10.6765 6.62647C10.5575 6.25379 10.3641 5.90951 10.1079 5.61385C9.8517 5.31819 9.53811 5.07735 9.18616 4.90652C8.83422 4.73568 8.45119 4.63823 8.06041 4.61986C7.58299 4.62601 7.11257 4.73605 6.6818 4.94198C6.25104 5.1479 5.87026 5.44509 5.56567 5.81277L5.64439 5.87046C6.16798 5.39018 6.84801 5.11606 7.55831 5.09883C7.85761 5.09567 8.1543 5.15392 8.43015 5.2701C8.706 5.38628 8.95511 5.55798 9.16197 5.77431C9.36884 5.99063 9.52909 6.24714 9.63283 6.52791C9.73656 6.80868 9.78156 7.10766 9.76504 7.40652C9.71831 8.40575 9.28924 9.34871 8.56672 10.0405C7.8442 10.7324 6.88345 11.1201 5.88313 11.1235C5.48346 11.1337 5.08606 11.0604 4.71606 10.9089C4.34606 10.7575 4.01153 10.5312 3.73379 10.2437C3.45605 9.95608 3.24112 9.6139 3.10263 9.23885C2.96413 8.8638 2.90522 8.46364 2.9294 8.06457C2.9294 5.30273 5.749 2.99786 8.40131 2.99786C9.0204 2.99989 9.63273 3.12729 10.201 3.37286C10.7693 3.61844 11.2817 3.97689 11.7075 4.42635C12.1332 4.87581 12.4634 5.40688 12.6779 5.98765C12.8923 6.56841 12.9867 7.18666 12.9552 7.80496C12.9552 11.9896 9.04381 15.2977 4.93796 15.2977C4.4087 15.2995 3.88113 15.2384 3.3663 15.1157L3.32318 15.1788C4.36913 15.727 5.53425 16.0086 6.71516 15.9985C9.16054 15.9263 11.4877 14.9292 13.227 13.2088C14.9664 11.4884 15.9885 9.17248 16.0875 6.72803C16.1088 5.83381 15.9477 4.9448 15.6136 4.11505C15.2795 3.2853 14.7797 2.53226 14.1447 1.90231C13.5097 1.27236 12.7528 0.778991 11.9204 0.45159C11.088 0.12419 10.1975 -0.0300828 9.3035 -0.0015348Z" fill="black" fill-opacity="0.2"/>
<path d="M9.3035 -0.0015348C4.96011 -0.0015348 0.488744 3.63994 0.488744 8.16794C0.433118 8.81288 0.513834 9.46254 0.725823 10.0742C0.937813 10.6858 1.27625 11.2462 1.71906 11.7184C2.16188 12.1906 2.6992 12.5638 3.29599 12.8146C3.89277 13.0654 4.53567 13.1881 5.18286 13.1739C6.63315 13.1709 8.02645 12.6086 9.07273 11.6042C10.119 10.5999 10.7376 9.23048 10.8 7.78152C10.8375 7.3921 10.7955 6.99915 10.6765 6.62647C10.5575 6.25379 10.3641 5.90951 10.1079 5.61385C9.8517 5.31819 9.53811 5.07735 9.18616 4.90652C8.83422 4.73568 8.45119 4.63823 8.06041 4.61986C7.58299 4.62601 7.11257 4.73605 6.6818 4.94198C6.25104 5.1479 5.87026 5.44509 5.56567 5.81277L5.64439 5.87046C6.16798 5.39018 6.84801 5.11606 7.55831 5.09883C7.85761 5.09567 8.1543 5.15392 8.43015 5.2701C8.706 5.38628 8.95511 5.55798 9.16197 5.77431C9.36884 5.99063 9.52909 6.24714 9.63283 6.52791C9.73656 6.80868 9.78156 7.10766 9.76504 7.40652C9.71831 8.40575 9.28924 9.34871 8.56672 10.0405C7.8442 10.7324 6.88345 11.1201 5.88313 11.1235C5.48346 11.1337 5.08606 11.0604 4.71606 10.9089C4.34606 10.7575 4.01153 10.5312 3.73379 10.2437C3.45605 9.95608 3.24112 9.6139 3.10263 9.23885C2.96413 8.8638 2.90522 8.46364 2.9294 8.06457C2.9294 5.30273 5.749 2.99786 8.40131 2.99786C9.0204 2.99989 9.63273 3.12729 10.201 3.37286C10.7693 3.61844 11.2817 3.97689 11.7075 4.42635C12.1332 4.87581 12.4634 5.40688 12.6779 5.98765C12.8923 6.56841 12.9867 7.18666 12.9552 7.80496C12.9552 11.9896 9.04381 15.2977 4.93796 15.2977C4.4087 15.2995 3.88113 15.2384 3.3663 15.1157L3.32318 15.1788C4.36913 15.727 5.53425 16.0086 6.71516 15.9985C9.16054 15.9263 11.4877 14.9292 13.227 13.2088C14.9664 11.4884 15.9885 9.17248 16.0875 6.72803C16.1088 5.83381 15.9477 4.9448 15.6136 4.11505C15.2795 3.2853 14.7797 2.53226 14.1447 1.90231C13.5097 1.27236 12.7528 0.778991 11.9204 0.45159C11.088 0.12419 10.1975 -0.0300828 9.3035 -0.0015348Z" fill="black" fill-opacity="0.2"/>
<path d="M9.3035 -0.0015348C4.96011 -0.0015348 0.488744 3.63994 0.488744 8.16794C0.433118 8.81288 0.513834 9.46254 0.725823 10.0742C0.937813 10.6858 1.27625 11.2462 1.71906 11.7184C2.16188 12.1906 2.6992 12.5638 3.29599 12.8146C3.89277 13.0654 4.53567 13.1881 5.18286 13.1739C6.63315 13.1709 8.02645 12.6086 9.07273 11.6042C10.119 10.5999 10.7376 9.23048 10.8 7.78152C10.8375 7.3921 10.7955 6.99915 10.6765 6.62647C10.5575 6.25379 10.3641 5.90951 10.1079 5.61385C9.8517 5.31819 9.53811 5.07735 9.18616 4.90652C8.83422 4.73568 8.45119 4.63823 8.06041 4.61986C7.58299 4.62601 7.11257 4.73605 6.6818 4.94198C6.25104 5.1479 5.87026 5.44509 5.56567 5.81277L5.64439 5.87046C6.16798 5.39018 6.84801 5.11606 7.55831 5.09883C7.85761 5.09567 8.1543 5.15392 8.43015 5.2701C8.706 5.38628 8.95511 5.55798 9.16197 5.77431C9.36884 5.99063 9.52909 6.24714 9.63283 6.52791C9.73656 6.80868 9.78156 7.10766 9.76504 7.40652C9.71831 8.40575 9.28924 9.34871 8.56672 10.0405C7.8442 10.7324 6.88345 11.1201 5.88313 11.1235C5.48346 11.1337 5.08606 11.0604 4.71606 10.9089C4.34606 10.7575 4.01153 10.5312 3.73379 10.2437C3.45605 9.95608 3.24112 9.6139 3.10263 9.23885C2.96413 8.8638 2.90522 8.46364 2.9294 8.06457C2.9294 5.30273 5.749 2.99786 8.40131 2.99786C9.0204 2.99989 9.63273 3.12729 10.201 3.37286C10.7693 3.61844 11.2817 3.97689 11.7075 4.42635C12.1332 4.87581 12.4634 5.40688 12.6779 5.98765C12.8923 6.56841 12.9867 7.18666 12.9552 7.80496C12.9552 11.9896 9.04381 15.2977 4.93796 15.2977C4.4087 15.2995 3.88113 15.2384 3.3663 15.1157L3.32318 15.1788C4.36913 15.727 5.53425 16.0086 6.71516 15.9985C9.16054 15.9263 11.4877 14.9292 13.227 13.2088C14.9664 11.4884 15.9885 9.17248 16.0875 6.72803C16.1088 5.83381 15.9477 4.9448 15.6136 4.11505C15.2795 3.2853 14.7797 2.53226 14.1447 1.90231C13.5097 1.27236 12.7528 0.778991 11.9204 0.45159C11.088 0.12419 10.1975 -0.0300828 9.3035 -0.0015348Z" fill="black" fill-opacity="0.2"/>
<path d="M9.3035 -0.0015348C4.96011 -0.0015348 0.488744 3.63994 0.488744 8.16794C0.433118 8.81288 0.513834 9.46254 0.725823 10.0742C0.937813 10.6858 1.27625 11.2462 1.71906 11.7184C2.16188 12.1906 2.6992 12.5638 3.29599 12.8146C3.89277 13.0654 4.53567 13.1881 5.18286 13.1739C6.63315 13.1709 8.02645 12.6086 9.07273 11.6042C10.119 10.5999 10.7376 9.23048 10.8 7.78152C10.8375 7.3921 10.7955 6.99915 10.6765 6.62647C10.5575 6.25379 10.3641 5.90951 10.1079 5.61385C9.8517 5.31819 9.53811 5.07735 9.18616 4.90652C8.83422 4.73568 8.45119 4.63823 8.06041 4.61986C7.58299 4.62601 7.11257 4.73605 6.6818 4.94198C6.25104 5.1479 5.87026 5.44509 5.56567 5.81277L5.64439 5.87046C6.16798 5.39018 6.84801 5.11606 7.55831 5.09883C7.85761 5.09567 8.1543 5.15392 8.43015 5.2701C8.706 5.38628 8.95511 5.55798 9.16197 5.77431C9.36884 5.99063 9.52909 6.24714 9.63283 6.52791C9.73656 6.80868 9.78156 7.10766 9.76504 7.40652C9.71831 8.40575 9.28924 9.34871 8.56672 10.0405C7.8442 10.7324 6.88345 11.1201 5.88313 11.1235C5.48346 11.1337 5.08606 11.0604 4.71606 10.9089C4.34606 10.7575 4.01153 10.5312 3.73379 10.2437C3.45605 9.95608 3.24112 9.6139 3.10263 9.23885C2.96413 8.8638 2.90522 8.46364 2.9294 8.06457C2.9294 5.30273 5.749 2.99786 8.40131 2.99786C9.0204 2.99989 9.63273 3.12729 10.201 3.37286C10.7693 3.61844 11.2817 3.97689 11.7075 4.42635C12.1332 4.87581 12.4634 5.40688 12.6779 5.98765C12.8923 6.56841 12.9867 7.18666 12.9552 7.80496C12.9552 11.9896 9.04381 15.2977 4.93796 15.2977C4.4087 15.2995 3.88113 15.2384 3.3663 15.1157L3.32318 15.1788C4.36913 15.727 5.53425 16.0086 6.71516 15.9985C9.16054 15.9263 11.4877 14.9292 13.227 13.2088C14.9664 11.4884 15.9885 9.17248 16.0875 6.72803C16.1088 5.83381 15.9477 4.9448 15.6136 4.11505C15.2795 3.2853 14.7797 2.53226 14.1447 1.90231C13.5097 1.27236 12.7528 0.778991 11.9204 0.45159C11.088 0.12419 10.1975 -0.0300828 9.3035 -0.0015348Z" fill="black" fill-opacity="0.2"/>
<path d="M24.5963 12.6446C25.9502 12.7789 27.3109 12.4653 28.4697 11.7522C28.7926 11.5084 29.0536 11.192 29.2315 10.8285C29.4094 10.465 29.4991 10.0643 29.4935 9.65967C29.4999 9.09046 29.3078 8.5371 28.9503 8.09417C28.5927 7.65124 28.092 7.34681 27.5343 7.23299V7.20595C27.9893 7.07224 28.3902 6.79767 28.6792 6.42169C28.9683 6.04572 29.1306 5.58749 29.1429 5.1134C29.1506 4.71194 29.045 4.3165 28.8385 3.97217C28.6319 3.62784 28.3327 3.34849 27.9749 3.16628C27.0739 2.71521 26.0653 2.52344 25.0616 2.6116C24.0973 2.60499 23.1342 2.67679 22.1816 2.82674V12.4932C22.9818 12.6021 23.7888 12.6527 24.5963 12.6446ZM24.3933 4.31112C24.7056 4.24876 25.0242 4.22428 25.3422 4.2384C26.349 4.2384 26.9213 4.62957 26.9213 5.37542C26.9213 6.12126 26.3059 6.59176 25.1206 6.59176H24.3933V4.31112ZM24.3933 8.18551H25.1502C26.2579 8.18551 27.1538 8.58176 27.1538 9.57253C27.1538 10.6138 26.2628 11.0076 25.2536 11.0076C24.9657 11.0196 24.6774 11.005 24.3921 10.9644L24.3933 8.18551ZM33.4862 8.9241H34.5275L36.2948 12.5353H38.7195L36.669 8.2997V8.25583C37.1846 8.03403 37.6259 7.66928 37.9408 7.20474C38.2557 6.74021 38.4311 6.19485 38.4462 5.63383C38.4462 4.02768 37.2844 2.60739 34.2444 2.60739C33.251 2.59627 32.2584 2.66868 31.277 2.82313V12.5353H33.4862V8.9241ZM33.4862 4.35018C33.8197 4.28529 34.1597 4.26005 34.4991 4.27506C35.5206 4.27506 36.1361 4.82806 36.1361 5.72037C36.1361 6.61268 35.5848 7.32013 34.2826 7.32013H33.4862V4.35018ZM42.4512 10.0034H45.2819L46.0413 12.5353H48.4413L45.3705 2.6789H42.4597L39.4456 12.5353H41.7557L42.4512 10.0034ZM43.3717 6.24681C43.5206 5.67697 43.6795 4.9311 43.8111 4.35018H43.8567C44.0007 4.9151 44.1742 5.6622 44.3391 6.24681L44.9545 8.33936H42.7761L43.3717 6.24681ZM51.8948 12.5353H49.8419V2.6789H52.445L54.4917 6.29249C55.0944 7.3864 55.6319 8.51504 56.1016 9.67229H56.1312C56.0022 8.30102 55.9433 6.92397 55.9551 5.54669V2.6789H58.0032V12.5353H55.6647L53.5589 8.7366C52.9237 7.60882 52.3529 6.44643 51.8493 5.25402H51.7891C51.8617 6.56849 51.8899 7.96172 51.8899 9.56172L51.8948 12.5353ZM67.2918 11.367C67.8409 10.8637 68.2713 10.2446 68.5518 9.5545C68.8324 8.86442 68.9561 8.12036 68.9139 7.37662C68.9604 6.6637 68.8335 5.95041 68.5439 5.29729C68.2543 4.64417 67.8108 4.07083 67.2512 3.62662C66.0533 2.84273 64.6269 2.4837 63.2007 2.60739C62.1963 2.59656 61.1927 2.66896 60.2001 2.82313V12.4896C61.0396 12.5969 61.8855 12.6468 62.7318 12.6386C64.3517 12.7504 65.961 12.3035 67.2918 11.373V11.367ZM62.4241 4.40607C62.7554 4.33973 63.0931 4.31006 63.4309 4.31833C63.8543 4.26742 64.2836 4.31369 64.6866 4.45294C65.0896 4.59219 65.4559 4.82101 65.7575 5.12241C66.0592 5.42381 66.2883 5.7898 66.4279 6.19273C66.5675 6.59565 66.6137 7.02473 66.5631 7.44813C66.6234 7.90797 66.5788 8.37581 66.4325 8.81592C66.2863 9.25603 66.0422 9.65736 65.7186 9.9896C65.395 10.3218 65.0004 10.5764 64.5643 10.7342C64.1282 10.892 63.662 10.9489 63.2007 10.9007C62.941 10.9106 62.6809 10.8952 62.4241 10.855V4.40607ZM76.7563 12.5287H70.4794V2.67289H76.5472V4.50042H72.701V6.54849H75.8875V8.36039H72.701V10.6987H76.7539L76.7563 12.5287ZM77.8062 12.5287L80.6567 7.54309L77.9072 2.67289H80.4697L81.3311 4.47337C81.6277 5.07153 81.8431 5.55537 82.0769 6.10799H82.1053C82.3441 5.4803 82.5336 5.04568 82.781 4.47337L83.6154 2.67289H86.1582L83.3816 7.48539L86.3047 12.5311H83.7312L82.8388 10.748C82.4696 10.0649 82.2431 9.54803 81.9612 8.97818H81.9354C81.7286 9.54803 81.4776 10.0649 81.1564 10.748L80.3526 12.5311L77.8062 12.5287ZM89.8875 8.99561C90.1396 9.03762 90.395 9.05682 90.6505 9.0533C91.8135 9.11807 92.959 8.7475 93.864 8.01424C94.1673 7.70787 94.4035 7.34171 94.5575 6.93912C94.7116 6.53653 94.7801 6.10643 94.7589 5.6759C94.7712 5.24376 94.6836 4.81448 94.503 4.42169C94.3224 4.02891 94.0536 3.68341 93.7176 3.41148C92.8329 2.80176 91.7644 2.51696 90.6937 2.60619C89.6858 2.58987 88.6784 2.65823 87.6819 2.81051V12.5341H89.8875V8.99561ZM89.8875 4.37001C90.1912 4.31265 90.5004 4.28858 90.8093 4.29849C91.9367 4.29849 92.5521 4.84168 92.5521 5.74261C92.5521 6.74322 91.8136 7.33636 90.6333 7.33636C90.3832 7.34597 90.133 7.32672 89.8875 7.27866V4.37001ZM102.552 12.5287H96.2751V2.67289H102.348V4.50042H98.5029V6.54849H101.686V8.36039H98.5029V10.6987H102.552V12.5287ZM115.085 4.54369H112.422V2.67289H119.998V4.54369H117.306V12.5287H115.091L115.085 4.54369ZM106.716 8.91809H107.757L109.524 12.5287H111.954L109.901 8.29369V8.24922C110.416 8.02731 110.857 7.66269 111.172 7.19813C111.486 6.73357 111.661 6.18864 111.676 5.62782C111.676 4.02167 110.516 2.60138 107.478 2.60138C106.483 2.59035 105.489 2.66275 104.506 2.81712V12.5287H106.722L106.716 8.91809ZM106.716 4.34417C107.048 4.27924 107.388 4.25399 107.726 4.26905C108.753 4.26905 109.366 4.82205 109.366 5.71436C109.366 6.60667 108.817 7.31412 107.512 7.31412H106.716V4.34417Z" fill="#211F20"/>
<path d="M24.5963 12.6446C25.9502 12.7789 27.3109 12.4653 28.4697 11.7522C28.7926 11.5084 29.0536 11.192 29.2315 10.8285C29.4094 10.465 29.4991 10.0643 29.4935 9.65967C29.4999 9.09046 29.3078 8.5371 28.9503 8.09417C28.5927 7.65124 28.092 7.34681 27.5343 7.23299V7.20595C27.9893 7.07224 28.3902 6.79767 28.6792 6.42169C28.9683 6.04572 29.1306 5.58749 29.1429 5.1134C29.1506 4.71194 29.045 4.3165 28.8385 3.97217C28.6319 3.62784 28.3327 3.34849 27.9749 3.16628C27.0739 2.71521 26.0653 2.52344 25.0616 2.6116C24.0973 2.60499 23.1342 2.67679 22.1816 2.82674V12.4932C22.9818 12.6021 23.7888 12.6527 24.5963 12.6446ZM24.3933 4.31112C24.7056 4.24876 25.0242 4.22428 25.3422 4.2384C26.349 4.2384 26.9213 4.62957 26.9213 5.37542C26.9213 6.12126 26.3059 6.59176 25.1206 6.59176H24.3933V4.31112ZM24.3933 8.18551H25.1502C26.2579 8.18551 27.1538 8.58176 27.1538 9.57253C27.1538 10.6138 26.2628 11.0076 25.2536 11.0076C24.9657 11.0196 24.6774 11.005 24.3921 10.9644L24.3933 8.18551ZM33.4862 8.9241H34.5275L36.2948 12.5353H38.7195L36.669 8.2997V8.25583C37.1846 8.03403 37.6259 7.66928 37.9408 7.20474C38.2557 6.74021 38.4311 6.19485 38.4462 5.63383C38.4462 4.02768 37.2844 2.60739 34.2444 2.60739C33.251 2.59627 32.2584 2.66868 31.277 2.82313V12.5353H33.4862V8.9241ZM33.4862 4.35018C33.8197 4.28529 34.1597 4.26005 34.4991 4.27506C35.5206 4.27506 36.1361 4.82806 36.1361 5.72037C36.1361 6.61268 35.5848 7.32013 34.2826 7.32013H33.4862V4.35018ZM42.4512 10.0034H45.2819L46.0413 12.5353H48.4413L45.3705 2.6789H42.4597L39.4456 12.5353H41.7557L42.4512 10.0034ZM43.3717 6.24681C43.5206 5.67697 43.6795 4.9311 43.8111 4.35018H43.8567C44.0007 4.9151 44.1742 5.6622 44.3391 6.24681L44.9545 8.33936H42.7761L43.3717 6.24681ZM51.8948 12.5353H49.8419V2.6789H52.445L54.4917 6.29249C55.0944 7.3864 55.6319 8.51504 56.1016 9.67229H56.1312C56.0022 8.30102 55.9433 6.92397 55.9551 5.54669V2.6789H58.0032V12.5353H55.6647L53.5589 8.7366C52.9237 7.60882 52.3529 6.44643 51.8493 5.25402H51.7891C51.8617 6.56849 51.8899 7.96172 51.8899 9.56172L51.8948 12.5353ZM67.2918 11.367C67.8409 10.8637 68.2713 10.2446 68.5518 9.5545C68.8324 8.86442 68.9561 8.12036 68.9139 7.37662C68.9604 6.6637 68.8335 5.95041 68.5439 5.29729C68.2543 4.64417 67.8108 4.07083 67.2512 3.62662C66.0533 2.84273 64.6269 2.4837 63.2007 2.60739C62.1963 2.59656 61.1927 2.66896 60.2001 2.82313V12.4896C61.0396 12.5969 61.8855 12.6468 62.7318 12.6386C64.3517 12.7504 65.961 12.3035 67.2918 11.373V11.367ZM62.4241 4.40607C62.7554 4.33973 63.0931 4.31006 63.4309 4.31833C63.8543 4.26742 64.2836 4.31369 64.6866 4.45294C65.0896 4.59219 65.4559 4.82101 65.7575 5.12241C66.0592 5.42381 66.2883 5.7898 66.4279 6.19273C66.5675 6.59565 66.6137 7.02473 66.5631 7.44813C66.6234 7.90797 66.5788 8.37581 66.4325 8.81592C66.2863 9.25603 66.0422 9.65736 65.7186 9.9896C65.395 10.3218 65.0004 10.5764 64.5643 10.7342C64.1282 10.892 63.662 10.9489 63.2007 10.9007C62.941 10.9106 62.6809 10.8952 62.4241 10.855V4.40607ZM76.7563 12.5287H70.4794V2.67289H76.5472V4.50042H72.701V6.54849H75.8875V8.36039H72.701V10.6987H76.7539L76.7563 12.5287ZM77.8062 12.5287L80.6567 7.54309L77.9072 2.67289H80.4697L81.3311 4.47337C81.6277 5.07153 81.8431 5.55537 82.0769 6.10799H82.1053C82.3441 5.4803 82.5336 5.04568 82.781 4.47337L83.6154 2.67289H86.1582L83.3816 7.48539L86.3047 12.5311H83.7312L82.8388 10.748C82.4696 10.0649 82.2431 9.54803 81.9612 8.97818H81.9354C81.7286 9.54803 81.4776 10.0649 81.1564 10.748L80.3526 12.5311L77.8062 12.5287ZM89.8875 8.99561C90.1396 9.03762 90.395 9.05682 90.6505 9.0533C91.8135 9.11807 92.959 8.7475 93.864 8.01424C94.1673 7.70787 94.4035 7.34171 94.5575 6.93912C94.7116 6.53653 94.7801 6.10643 94.7589 5.6759C94.7712 5.24376 94.6836 4.81448 94.503 4.42169C94.3224 4.02891 94.0536 3.68341 93.7176 3.41148C92.8329 2.80176 91.7644 2.51696 90.6937 2.60619C89.6858 2.58987 88.6784 2.65823 87.6819 2.81051V12.5341H89.8875V8.99561ZM89.8875 4.37001C90.1912 4.31265 90.5004 4.28858 90.8093 4.29849C91.9367 4.29849 92.5521 4.84168 92.5521 5.74261C92.5521 6.74322 91.8136 7.33636 90.6333 7.33636C90.3832 7.34597 90.133 7.32672 89.8875 7.27866V4.37001ZM102.552 12.5287H96.2751V2.67289H102.348V4.50042H98.5029V6.54849H101.686V8.36039H98.5029V10.6987H102.552V12.5287ZM115.085 4.54369H112.422V2.67289H119.998V4.54369H117.306V12.5287H115.091L115.085 4.54369ZM106.716 8.91809H107.757L109.524 12.5287H111.954L109.901 8.29369V8.24922C110.416 8.02731 110.857 7.66269 111.172 7.19813C111.486 6.73357 111.661 6.18864 111.676 5.62782C111.676 4.02167 110.516 2.60138 107.478 2.60138C106.483 2.59035 105.489 2.66275 104.506 2.81712V12.5287H106.722L106.716 8.91809ZM106.716 4.34417C107.048 4.27924 107.388 4.25399 107.726 4.26905C108.753 4.26905 109.366 4.82205 109.366 5.71436C109.366 6.60667 108.817 7.31412 107.512 7.31412H106.716V4.34417Z" fill="black" fill-opacity="0.2"/>
<path d="M24.5963 12.6446C25.9502 12.7789 27.3109 12.4653 28.4697 11.7522C28.7926 11.5084 29.0536 11.192 29.2315 10.8285C29.4094 10.465 29.4991 10.0643 29.4935 9.65967C29.4999 9.09046 29.3078 8.5371 28.9503 8.09417C28.5927 7.65124 28.092 7.34681 27.5343 7.23299V7.20595C27.9893 7.07224 28.3902 6.79767 28.6792 6.42169C28.9683 6.04572 29.1306 5.58749 29.1429 5.1134C29.1506 4.71194 29.045 4.3165 28.8385 3.97217C28.6319 3.62784 28.3327 3.34849 27.9749 3.16628C27.0739 2.71521 26.0653 2.52344 25.0616 2.6116C24.0973 2.60499 23.1342 2.67679 22.1816 2.82674V12.4932C22.9818 12.6021 23.7888 12.6527 24.5963 12.6446ZM24.3933 4.31112C24.7056 4.24876 25.0242 4.22428 25.3422 4.2384C26.349 4.2384 26.9213 4.62957 26.9213 5.37542C26.9213 6.12126 26.3059 6.59176 25.1206 6.59176H24.3933V4.31112ZM24.3933 8.18551H25.1502C26.2579 8.18551 27.1538 8.58176 27.1538 9.57253C27.1538 10.6138 26.2628 11.0076 25.2536 11.0076C24.9657 11.0196 24.6774 11.005 24.3921 10.9644L24.3933 8.18551ZM33.4862 8.9241H34.5275L36.2948 12.5353H38.7195L36.669 8.2997V8.25583C37.1846 8.03403 37.6259 7.66928 37.9408 7.20474C38.2557 6.74021 38.4311 6.19485 38.4462 5.63383C38.4462 4.02768 37.2844 2.60739 34.2444 2.60739C33.251 2.59627 32.2584 2.66868 31.277 2.82313V12.5353H33.4862V8.9241ZM33.4862 4.35018C33.8197 4.28529 34.1597 4.26005 34.4991 4.27506C35.5206 4.27506 36.1361 4.82806 36.1361 5.72037C36.1361 6.61268 35.5848 7.32013 34.2826 7.32013H33.4862V4.35018ZM42.4512 10.0034H45.2819L46.0413 12.5353H48.4413L45.3705 2.6789H42.4597L39.4456 12.5353H41.7557L42.4512 10.0034ZM43.3717 6.24681C43.5206 5.67697 43.6795 4.9311 43.8111 4.35018H43.8567C44.0007 4.9151 44.1742 5.6622 44.3391 6.24681L44.9545 8.33936H42.7761L43.3717 6.24681ZM51.8948 12.5353H49.8419V2.6789H52.445L54.4917 6.29249C55.0944 7.3864 55.6319 8.51504 56.1016 9.67229H56.1312C56.0022 8.30102 55.9433 6.92397 55.9551 5.54669V2.6789H58.0032V12.5353H55.6647L53.5589 8.7366C52.9237 7.60882 52.3529 6.44643 51.8493 5.25402H51.7891C51.8617 6.56849 51.8899 7.96172 51.8899 9.56172L51.8948 12.5353ZM67.2918 11.367C67.8409 10.8637 68.2713 10.2446 68.5518 9.5545C68.8324 8.86442 68.9561 8.12036 68.9139 7.37662C68.9604 6.6637 68.8335 5.95041 68.5439 5.29729C68.2543 4.64417 67.8108 4.07083 67.2512 3.62662C66.0533 2.84273 64.6269 2.4837 63.2007 2.60739C62.1963 2.59656 61.1927 2.66896 60.2001 2.82313V12.4896C61.0396 12.5969 61.8855 12.6468 62.7318 12.6386C64.3517 12.7504 65.961 12.3035 67.2918 11.373V11.367ZM62.4241 4.40607C62.7554 4.33973 63.0931 4.31006 63.4309 4.31833C63.8543 4.26742 64.2836 4.31369 64.6866 4.45294C65.0896 4.59219 65.4559 4.82101 65.7575 5.12241C66.0592 5.42381 66.2883 5.7898 66.4279 6.19273C66.5675 6.59565 66.6137 7.02473 66.5631 7.44813C66.6234 7.90797 66.5788 8.37581 66.4325 8.81592C66.2863 9.25603 66.0422 9.65736 65.7186 9.9896C65.395 10.3218 65.0004 10.5764 64.5643 10.7342C64.1282 10.892 63.662 10.9489 63.2007 10.9007C62.941 10.9106 62.6809 10.8952 62.4241 10.855V4.40607ZM76.7563 12.5287H70.4794V2.67289H76.5472V4.50042H72.701V6.54849H75.8875V8.36039H72.701V10.6987H76.7539L76.7563 12.5287ZM77.8062 12.5287L80.6567 7.54309L77.9072 2.67289H80.4697L81.3311 4.47337C81.6277 5.07153 81.8431 5.55537 82.0769 6.10799H82.1053C82.3441 5.4803 82.5336 5.04568 82.781 4.47337L83.6154 2.67289H86.1582L83.3816 7.48539L86.3047 12.5311H83.7312L82.8388 10.748C82.4696 10.0649 82.2431 9.54803 81.9612 8.97818H81.9354C81.7286 9.54803 81.4776 10.0649 81.1564 10.748L80.3526 12.5311L77.8062 12.5287ZM89.8875 8.99561C90.1396 9.03762 90.395 9.05682 90.6505 9.0533C91.8135 9.11807 92.959 8.7475 93.864 8.01424C94.1673 7.70787 94.4035 7.34171 94.5575 6.93912C94.7116 6.53653 94.7801 6.10643 94.7589 5.6759C94.7712 5.24376 94.6836 4.81448 94.503 4.42169C94.3224 4.02891 94.0536 3.68341 93.7176 3.41148C92.8329 2.80176 91.7644 2.51696 90.6937 2.60619C89.6858 2.58987 88.6784 2.65823 87.6819 2.81051V12.5341H89.8875V8.99561ZM89.8875 4.37001C90.1912 4.31265 90.5004 4.28858 90.8093 4.29849C91.9367 4.29849 92.5521 4.84168 92.5521 5.74261C92.5521 6.74322 91.8136 7.33636 90.6333 7.33636C90.3832 7.34597 90.133 7.32672 89.8875 7.27866V4.37001ZM102.552 12.5287H96.2751V2.67289H102.348V4.50042H98.5029V6.54849H101.686V8.36039H98.5029V10.6987H102.552V12.5287ZM115.085 4.54369H112.422V2.67289H119.998V4.54369H117.306V12.5287H115.091L115.085 4.54369ZM106.716 8.91809H107.757L109.524 12.5287H111.954L109.901 8.29369V8.24922C110.416 8.02731 110.857 7.66269 111.172 7.19813C111.486 6.73357 111.661 6.18864 111.676 5.62782C111.676 4.02167 110.516 2.60138 107.478 2.60138C106.483 2.59035 105.489 2.66275 104.506 2.81712V12.5287H106.722L106.716 8.91809ZM106.716 4.34417C107.048 4.27924 107.388 4.25399 107.726 4.26905C108.753 4.26905 109.366 4.82205 109.366 5.71436C109.366 6.60667 108.817 7.31412 107.512 7.31412H106.716V4.34417Z" fill="black" fill-opacity="0.2"/>
<path d="M24.5963 12.6446C25.9502 12.7789 27.3109 12.4653 28.4697 11.7522C28.7926 11.5084 29.0536 11.192 29.2315 10.8285C29.4094 10.465 29.4991 10.0643 29.4935 9.65967C29.4999 9.09046 29.3078 8.5371 28.9503 8.09417C28.5927 7.65124 28.092 7.34681 27.5343 7.23299V7.20595C27.9893 7.07224 28.3902 6.79767 28.6792 6.42169C28.9683 6.04572 29.1306 5.58749 29.1429 5.1134C29.1506 4.71194 29.045 4.3165 28.8385 3.97217C28.6319 3.62784 28.3327 3.34849 27.9749 3.16628C27.0739 2.71521 26.0653 2.52344 25.0616 2.6116C24.0973 2.60499 23.1342 2.67679 22.1816 2.82674V12.4932C22.9818 12.6021 23.7888 12.6527 24.5963 12.6446ZM24.3933 4.31112C24.7056 4.24876 25.0242 4.22428 25.3422 4.2384C26.349 4.2384 26.9213 4.62957 26.9213 5.37542C26.9213 6.12126 26.3059 6.59176 25.1206 6.59176H24.3933V4.31112ZM24.3933 8.18551H25.1502C26.2579 8.18551 27.1538 8.58176 27.1538 9.57253C27.1538 10.6138 26.2628 11.0076 25.2536 11.0076C24.9657 11.0196 24.6774 11.005 24.3921 10.9644L24.3933 8.18551ZM33.4862 8.9241H34.5275L36.2948 12.5353H38.7195L36.669 8.2997V8.25583C37.1846 8.03403 37.6259 7.66928 37.9408 7.20474C38.2557 6.74021 38.4311 6.19485 38.4462 5.63383C38.4462 4.02768 37.2844 2.60739 34.2444 2.60739C33.251 2.59627 32.2584 2.66868 31.277 2.82313V12.5353H33.4862V8.9241ZM33.4862 4.35018C33.8197 4.28529 34.1597 4.26005 34.4991 4.27506C35.5206 4.27506 36.1361 4.82806 36.1361 5.72037C36.1361 6.61268 35.5848 7.32013 34.2826 7.32013H33.4862V4.35018ZM42.4512 10.0034H45.2819L46.0413 12.5353H48.4413L45.3705 2.6789H42.4597L39.4456 12.5353H41.7557L42.4512 10.0034ZM43.3717 6.24681C43.5206 5.67697 43.6795 4.9311 43.8111 4.35018H43.8567C44.0007 4.9151 44.1742 5.6622 44.3391 6.24681L44.9545 8.33936H42.7761L43.3717 6.24681ZM51.8948 12.5353H49.8419V2.6789H52.445L54.4917 6.29249C55.0944 7.3864 55.6319 8.51504 56.1016 9.67229H56.1312C56.0022 8.30102 55.9433 6.92397 55.9551 5.54669V2.6789H58.0032V12.5353H55.6647L53.5589 8.7366C52.9237 7.60882 52.3529 6.44643 51.8493 5.25402H51.7891C51.8617 6.56849 51.8899 7.96172 51.8899 9.56172L51.8948 12.5353ZM67.2918 11.367C67.8409 10.8637 68.2713 10.2446 68.5518 9.5545C68.8324 8.86442 68.9561 8.12036 68.9139 7.37662C68.9604 6.6637 68.8335 5.95041 68.5439 5.29729C68.2543 4.64417 67.8108 4.07083 67.2512 3.62662C66.0533 2.84273 64.6269 2.4837 63.2007 2.60739C62.1963 2.59656 61.1927 2.66896 60.2001 2.82313V12.4896C61.0396 12.5969 61.8855 12.6468 62.7318 12.6386C64.3517 12.7504 65.961 12.3035 67.2918 11.373V11.367ZM62.4241 4.40607C62.7554 4.33973 63.0931 4.31006 63.4309 4.31833C63.8543 4.26742 64.2836 4.31369 64.6866 4.45294C65.0896 4.59219 65.4559 4.82101 65.7575 5.12241C66.0592 5.42381 66.2883 5.7898 66.4279 6.19273C66.5675 6.59565 66.6137 7.02473 66.5631 7.44813C66.6234 7.90797 66.5788 8.37581 66.4325 8.81592C66.2863 9.25603 66.0422 9.65736 65.7186 9.9896C65.395 10.3218 65.0004 10.5764 64.5643 10.7342C64.1282 10.892 63.662 10.9489 63.2007 10.9007C62.941 10.9106 62.6809 10.8952 62.4241 10.855V4.40607ZM76.7563 12.5287H70.4794V2.67289H76.5472V4.50042H72.701V6.54849H75.8875V8.36039H72.701V10.6987H76.7539L76.7563 12.5287ZM77.8062 12.5287L80.6567 7.54309L77.9072 2.67289H80.4697L81.3311 4.47337C81.6277 5.07153 81.8431 5.55537 82.0769 6.10799H82.1053C82.3441 5.4803 82.5336 5.04568 82.781 4.47337L83.6154 2.67289H86.1582L83.3816 7.48539L86.3047 12.5311H83.7312L82.8388 10.748C82.4696 10.0649 82.2431 9.54803 81.9612 8.97818H81.9354C81.7286 9.54803 81.4776 10.0649 81.1564 10.748L80.3526 12.5311L77.8062 12.5287ZM89.8875 8.99561C90.1396 9.03762 90.395 9.05682 90.6505 9.0533C91.8135 9.11807 92.959 8.7475 93.864 8.01424C94.1673 7.70787 94.4035 7.34171 94.5575 6.93912C94.7116 6.53653 94.7801 6.10643 94.7589 5.6759C94.7712 5.24376 94.6836 4.81448 94.503 4.42169C94.3224 4.02891 94.0536 3.68341 93.7176 3.41148C92.8329 2.80176 91.7644 2.51696 90.6937 2.60619C89.6858 2.58987 88.6784 2.65823 87.6819 2.81051V12.5341H89.8875V8.99561ZM89.8875 4.37001C90.1912 4.31265 90.5004 4.28858 90.8093 4.29849C91.9367 4.29849 92.5521 4.84168 92.5521 5.74261C92.5521 6.74322 91.8136 7.33636 90.6333 7.33636C90.3832 7.34597 90.133 7.32672 89.8875 7.27866V4.37001ZM102.552 12.5287H96.2751V2.67289H102.348V4.50042H98.5029V6.54849H101.686V8.36039H98.5029V10.6987H102.552V12.5287ZM115.085 4.54369H112.422V2.67289H119.998V4.54369H117.306V12.5287H115.091L115.085 4.54369ZM106.716 8.91809H107.757L109.524 12.5287H111.954L109.901 8.29369V8.24922C110.416 8.02731 110.857 7.66269 111.172 7.19813C111.486 6.73357 111.661 6.18864 111.676 5.62782C111.676 4.02167 110.516 2.60138 107.478 2.60138C106.483 2.59035 105.489 2.66275 104.506 2.81712V12.5287H106.722L106.716 8.91809ZM106.716 4.34417C107.048 4.27924 107.388 4.25399 107.726 4.26905C108.753 4.26905 109.366 4.82205 109.366 5.71436C109.366 6.60667 108.817 7.31412 107.512 7.31412H106.716V4.34417Z" fill="black" fill-opacity="0.2"/>
<path d="M24.5963 12.6446C25.9502 12.7789 27.3109 12.4653 28.4697 11.7522C28.7926 11.5084 29.0536 11.192 29.2315 10.8285C29.4094 10.465 29.4991 10.0643 29.4935 9.65967C29.4999 9.09046 29.3078 8.5371 28.9503 8.09417C28.5927 7.65124 28.092 7.34681 27.5343 7.23299V7.20595C27.9893 7.07224 28.3902 6.79767 28.6792 6.42169C28.9683 6.04572 29.1306 5.58749 29.1429 5.1134C29.1506 4.71194 29.045 4.3165 28.8385 3.97217C28.6319 3.62784 28.3327 3.34849 27.9749 3.16628C27.0739 2.71521 26.0653 2.52344 25.0616 2.6116C24.0973 2.60499 23.1342 2.67679 22.1816 2.82674V12.4932C22.9818 12.6021 23.7888 12.6527 24.5963 12.6446ZM24.3933 4.31112C24.7056 4.24876 25.0242 4.22428 25.3422 4.2384C26.349 4.2384 26.9213 4.62957 26.9213 5.37542C26.9213 6.12126 26.3059 6.59176 25.1206 6.59176H24.3933V4.31112ZM24.3933 8.18551H25.1502C26.2579 8.18551 27.1538 8.58176 27.1538 9.57253C27.1538 10.6138 26.2628 11.0076 25.2536 11.0076C24.9657 11.0196 24.6774 11.005 24.3921 10.9644L24.3933 8.18551ZM33.4862 8.9241H34.5275L36.2948 12.5353H38.7195L36.669 8.2997V8.25583C37.1846 8.03403 37.6259 7.66928 37.9408 7.20474C38.2557 6.74021 38.4311 6.19485 38.4462 5.63383C38.4462 4.02768 37.2844 2.60739 34.2444 2.60739C33.251 2.59627 32.2584 2.66868 31.277 2.82313V12.5353H33.4862V8.9241ZM33.4862 4.35018C33.8197 4.28529 34.1597 4.26005 34.4991 4.27506C35.5206 4.27506 36.1361 4.82806 36.1361 5.72037C36.1361 6.61268 35.5848 7.32013 34.2826 7.32013H33.4862V4.35018ZM42.4512 10.0034H45.2819L46.0413 12.5353H48.4413L45.3705 2.6789H42.4597L39.4456 12.5353H41.7557L42.4512 10.0034ZM43.3717 6.24681C43.5206 5.67697 43.6795 4.9311 43.8111 4.35018H43.8567C44.0007 4.9151 44.1742 5.6622 44.3391 6.24681L44.9545 8.33936H42.7761L43.3717 6.24681ZM51.8948 12.5353H49.8419V2.6789H52.445L54.4917 6.29249C55.0944 7.3864 55.6319 8.51504 56.1016 9.67229H56.1312C56.0022 8.30102 55.9433 6.92397 55.9551 5.54669V2.6789H58.0032V12.5353H55.6647L53.5589 8.7366C52.9237 7.60882 52.3529 6.44643 51.8493 5.25402H51.7891C51.8617 6.56849 51.8899 7.96172 51.8899 9.56172L51.8948 12.5353ZM67.2918 11.367C67.8409 10.8637 68.2713 10.2446 68.5518 9.5545C68.8324 8.86442 68.9561 8.12036 68.9139 7.37662C68.9604 6.6637 68.8335 5.95041 68.5439 5.29729C68.2543 4.64417 67.8108 4.07083 67.2512 3.62662C66.0533 2.84273 64.6269 2.4837 63.2007 2.60739C62.1963 2.59656 61.1927 2.66896 60.2001 2.82313V12.4896C61.0396 12.5969 61.8855 12.6468 62.7318 12.6386C64.3517 12.7504 65.961 12.3035 67.2918 11.373V11.367ZM62.4241 4.40607C62.7554 4.33973 63.0931 4.31006 63.4309 4.31833C63.8543 4.26742 64.2836 4.31369 64.6866 4.45294C65.0896 4.59219 65.4559 4.82101 65.7575 5.12241C66.0592 5.42381 66.2883 5.7898 66.4279 6.19273C66.5675 6.59565 66.6137 7.02473 66.5631 7.44813C66.6234 7.90797 66.5788 8.37581 66.4325 8.81592C66.2863 9.25603 66.0422 9.65736 65.7186 9.9896C65.395 10.3218 65.0004 10.5764 64.5643 10.7342C64.1282 10.892 63.662 10.9489 63.2007 10.9007C62.941 10.9106 62.6809 10.8952 62.4241 10.855V4.40607ZM76.7563 12.5287H70.4794V2.67289H76.5472V4.50042H72.701V6.54849H75.8875V8.36039H72.701V10.6987H76.7539L76.7563 12.5287ZM77.8062 12.5287L80.6567 7.54309L77.9072 2.67289H80.4697L81.3311 4.47337C81.6277 5.07153 81.8431 5.55537 82.0769 6.10799H82.1053C82.3441 5.4803 82.5336 5.04568 82.781 4.47337L83.6154 2.67289H86.1582L83.3816 7.48539L86.3047 12.5311H83.7312L82.8388 10.748C82.4696 10.0649 82.2431 9.54803 81.9612 8.97818H81.9354C81.7286 9.54803 81.4776 10.0649 81.1564 10.748L80.3526 12.5311L77.8062 12.5287ZM89.8875 8.99561C90.1396 9.03762 90.395 9.05682 90.6505 9.0533C91.8135 9.11807 92.959 8.7475 93.864 8.01424C94.1673 7.70787 94.4035 7.34171 94.5575 6.93912C94.7116 6.53653 94.7801 6.10643 94.7589 5.6759C94.7712 5.24376 94.6836 4.81448 94.503 4.42169C94.3224 4.02891 94.0536 3.68341 93.7176 3.41148C92.8329 2.80176 91.7644 2.51696 90.6937 2.60619C89.6858 2.58987 88.6784 2.65823 87.6819 2.81051V12.5341H89.8875V8.99561ZM89.8875 4.37001C90.1912 4.31265 90.5004 4.28858 90.8093 4.29849C91.9367 4.29849 92.5521 4.84168 92.5521 5.74261C92.5521 6.74322 91.8136 7.33636 90.6333 7.33636C90.3832 7.34597 90.133 7.32672 89.8875 7.27866V4.37001ZM102.552 12.5287H96.2751V2.67289H102.348V4.50042H98.5029V6.54849H101.686V8.36039H98.5029V10.6987H102.552V12.5287ZM115.085 4.54369H112.422V2.67289H119.998V4.54369H117.306V12.5287H115.091L115.085 4.54369ZM106.716 8.91809H107.757L109.524 12.5287H111.954L109.901 8.29369V8.24922C110.416 8.02731 110.857 7.66269 111.172 7.19813C111.486 6.73357 111.661 6.18864 111.676 5.62782C111.676 4.02167 110.516 2.60138 107.478 2.60138C106.483 2.59035 105.489 2.66275 104.506 2.81712V12.5287H106.722L106.716 8.91809ZM106.716 4.34417C107.048 4.27924 107.388 4.25399 107.726 4.26905C108.753 4.26905 109.366 4.82205 109.366 5.71436C109.366 6.60667 108.817 7.31412 107.512 7.31412H106.716V4.34417Z" fill="black" fill-opacity="0.2"/>
</g>
<defs>
<clipPath id="clip0_1723_19887">
<rect width="119.509" height="16" fill="white" transform="translate(0.491211)"/>
</clipPath>
</defs>
</svg>
