<svg width="35" height="40" viewBox="0 0 35 40" fill="none" xmlns="http://www.w3.org/2000/svg">
<path d="M17.4986 19.8365C17.606 19.4005 17.9281 17.7112 19.1626 11.6621C20.9876 2.99727 23.0274 1.25341 25.4965 0.27248V0C23.1884 0 21.095 0 18.1428 0C6.17284 0 3.65003 2.72479 1.77134 11.6621L0 20H17.2303C17.1229 20.436 16.8008 22.1253 15.5126 28.3379C13.6876 37.0027 11.9163 38.4741 9.17874 39.7275V40C11.4332 40 13.6876 40 16.6398 40C28.6097 40 31.0252 37.2752 32.9039 28.3379L34.6752 19.8365H17.4986Z" fill="#DBE0E4"/>
</svg>
