<svg width="50" height="58" viewBox="0 0 50 58" fill="none" xmlns="http://www.w3.org/2000/svg">
<path d="M25.2322 28.6033C25.387 27.9746 25.8514 25.5386 27.6316 16.8162C30.2632 4.32192 33.2043 1.80735 36.7647 0.392902V0C33.4365 0 30.418 0 26.161 0C8.90093 0 5.26316 3.92902 2.55418 16.8162L0 28.839H24.8452C24.6904 29.4677 24.226 31.9037 22.3684 40.8618C19.7368 53.3561 17.1827 55.4778 13.2353 57.2852V57.6781C16.4861 57.6781 19.7368 57.6781 23.9938 57.6781C41.2539 57.6781 44.7368 53.749 47.4458 40.8618L50 28.6033H25.2322Z" fill="white"/>
</svg>
