<svg width="60" height="70" viewBox="0 0 60 70" fill="none" xmlns="http://www.w3.org/2000/svg">
<path d="M30.2786 35.1101C30.4644 34.3557 31.0217 31.4325 33.1579 20.9656C36.3158 5.97244 39.8452 2.95495 44.1176 1.25762V0.786133C40.1238 0.786133 36.5015 0.786133 31.3932 0.786133C10.6811 0.786133 6.31579 5.50096 3.06502 20.9656L0 35.393H29.8142C29.6285 36.1473 29.0712 39.0705 26.8421 49.8203C23.6842 64.8135 20.6192 67.3595 15.8824 69.5283V69.9998C19.7833 69.9998 23.6842 69.9998 28.7926 69.9998C49.5046 69.9998 53.6842 65.285 56.935 49.8203L60 35.1101H30.2786Z" fill="white"/>
</svg>
