<svg width="22" height="22" viewBox="0 0 22 22" fill="none" xmlns="http://www.w3.org/2000/svg">
<g clip-path="url(#clip0_6416_4021)">
<path d="M16.5003 19.25L20.167 15.5833L18.8837 14.3L17.417 15.7667V11.9396H15.5837V15.7667L14.117 14.3L12.8337 15.5833L16.5003 19.25ZM12.8337 22V20.1667H20.167V22H12.8337ZM5.50033 18.3333C4.99616 18.3333 4.56456 18.1538 4.20553 17.7948C3.84651 17.4358 3.66699 17.0042 3.66699 16.5V3.66667C3.66699 3.1625 3.84651 2.7309 4.20553 2.37187C4.56456 2.01285 4.99616 1.83333 5.50033 1.83333H11.917L17.417 7.33333V10.1062H15.5837V8.25H11.0003V3.66667H5.50033V16.5H11.0003V18.3333H5.50033Z" fill="#4B556F"/>
</g>
<defs>
<clipPath id="clip0_6416_4021">
<rect width="22" height="22" fill="white"/>
</clipPath>
</defs>
</svg>
