<svg width="44" height="50" viewBox="0 0 44 50" fill="none" xmlns="http://www.w3.org/2000/svg">
<path d="M21.8733 24.7956C22.0075 24.2507 22.4101 22.139 23.9533 14.5777C26.2346 3.74659 28.7842 1.56676 31.8706 0.340599V0C28.9855 0 26.3687 0 22.6785 0C7.71605 0 4.56253 3.40599 2.21417 14.5777L0 25H21.5378C21.4036 25.545 21.0011 27.6567 19.3908 35.4223C17.1095 46.2534 14.8953 48.0926 11.4734 49.6594V50C14.2915 50 17.1095 50 20.7998 50C35.7622 50 38.7815 46.594 41.1299 35.4223L43.344 24.7956H21.8733Z" fill="#DBE0E4"/>
</svg>
