<svg width="106" height="18" viewBox="0 0 106 18" fill="none" xmlns="http://www.w3.org/2000/svg">
<g clip-path="url(#clip0_6438_20683)">
<path d="M3.43868 17.1202L9.00082 13.079L14.5613 17.1202L12.4379 10.5802L18 6.53909H11.1259L9.00082 0L6.87572 6.53909H0L5.56214 10.5802L3.43868 17.1202Z" fill="#02295C"/>
</g>
<g clip-path="url(#clip1_6438_20683)">
<path d="M25.4387 17.1202L31.0008 13.079L36.5613 17.1202L34.4379 10.5802L40 6.53909H33.1259L31.0008 0L28.8757 6.53909H22L27.5621 10.5802L25.4387 17.1202Z" fill="#02295C"/>
</g>
<g clip-path="url(#clip2_6438_20683)">
<path d="M47.4387 17.1202L53.0008 13.079L58.5613 17.1202L56.4379 10.5802L62 6.53909H55.1259L53.0008 0L50.8757 6.53909H44L49.5621 10.5802L47.4387 17.1202Z" fill="#02295C"/>
</g>
<g clip-path="url(#clip3_6438_20683)">
<path d="M69.4387 17.1202L75.0008 13.079L80.5613 17.1202L78.4379 10.5802L84 6.53909H77.1259L75.0008 0L72.8757 6.53909H66L71.5621 10.5802L69.4387 17.1202Z" fill="#02295C"/>
</g>
<g clip-path="url(#clip4_6438_20683)">
<path d="M91.4387 17.1202L97.0008 13.079L102.561 17.1202L100.438 10.5802L106 6.53909H99.1259L97.0008 0L94.8757 6.53909H88L93.5621 10.5802L91.4387 17.1202Z" fill="#02295C"/>
</g>
<defs>
<clipPath id="clip0_6438_20683">
<rect width="18" height="17.1202" fill="white"/>
</clipPath>
<clipPath id="clip1_6438_20683">
<rect width="18" height="17.1202" fill="white" transform="translate(22)"/>
</clipPath>
<clipPath id="clip2_6438_20683">
<rect width="18" height="17.1202" fill="white" transform="translate(44)"/>
</clipPath>
<clipPath id="clip3_6438_20683">
<rect width="18" height="17.1202" fill="white" transform="translate(66)"/>
</clipPath>
<clipPath id="clip4_6438_20683">
<rect width="18" height="17.1202" fill="white" transform="translate(88)"/>
</clipPath>
</defs>
</svg>
