<svg width="20" height="20" viewBox="0 0 20 20" fill="none" xmlns="http://www.w3.org/2000/svg">
<path d="M14.168 18.3333C13.4735 18.3333 12.8832 18.0903 12.3971 17.6042C11.911 17.118 11.668 16.5278 11.668 15.8333C11.668 15.75 11.6888 15.5555 11.7305 15.25L5.8763 11.8333C5.65408 12.0417 5.39714 12.2048 5.10547 12.3229C4.8138 12.441 4.5013 12.5 4.16797 12.5C3.47352 12.5 2.88325 12.2569 2.39714 11.7708C1.91102 11.2847 1.66797 10.6944 1.66797 9.99999C1.66797 9.30554 1.91102 8.71527 2.39714 8.22916C2.88325 7.74304 3.47352 7.49999 4.16797 7.49999C4.5013 7.49999 4.8138 7.55902 5.10547 7.67707C5.39714 7.79513 5.65408 7.95832 5.8763 8.16666L11.7305 4.74999C11.7027 4.65277 11.6853 4.55902 11.6784 4.46874C11.6714 4.37846 11.668 4.27777 11.668 4.16666C11.668 3.47221 11.911 2.88193 12.3971 2.39582C12.8832 1.90971 13.4735 1.66666 14.168 1.66666C14.8624 1.66666 15.4527 1.90971 15.9388 2.39582C16.4249 2.88193 16.668 3.47221 16.668 4.16666C16.668 4.8611 16.4249 5.45138 15.9388 5.93749C15.4527 6.4236 14.8624 6.66666 14.168 6.66666C13.8346 6.66666 13.5221 6.60763 13.2305 6.48957C12.9388 6.37152 12.6819 6.20832 12.4596 5.99999L6.60547 9.41666C6.63325 9.51388 6.65061 9.60763 6.65755 9.69791C6.6645 9.78818 6.66797 9.88888 6.66797 9.99999C6.66797 10.1111 6.6645 10.2118 6.65755 10.3021C6.65061 10.3923 6.63325 10.4861 6.60547 10.5833L12.4596 14C12.6819 13.7917 12.9388 13.6285 13.2305 13.5104C13.5221 13.3923 13.8346 13.3333 14.168 13.3333C14.8624 13.3333 15.4527 13.5764 15.9388 14.0625C16.4249 14.5486 16.668 15.1389 16.668 15.8333C16.668 16.5278 16.4249 17.118 15.9388 17.6042C15.4527 18.0903 14.8624 18.3333 14.168 18.3333ZM14.168 16.6667C14.4041 16.6667 14.602 16.5868 14.7617 16.4271C14.9214 16.2673 15.0013 16.0694 15.0013 15.8333C15.0013 15.5972 14.9214 15.3993 14.7617 15.2396C14.602 15.0798 14.4041 15 14.168 15C13.9319 15 13.7339 15.0798 13.5742 15.2396C13.4145 15.3993 13.3346 15.5972 13.3346 15.8333C13.3346 16.0694 13.4145 16.2673 13.5742 16.4271C13.7339 16.5868 13.9319 16.6667 14.168 16.6667ZM4.16797 10.8333C4.40408 10.8333 4.602 10.7535 4.76172 10.5937C4.92144 10.434 5.0013 10.2361 5.0013 9.99999C5.0013 9.76388 4.92144 9.56596 4.76172 9.40624C4.602 9.24652 4.40408 9.16666 4.16797 9.16666C3.93186 9.16666 3.73394 9.24652 3.57422 9.40624C3.4145 9.56596 3.33464 9.76388 3.33464 9.99999C3.33464 10.2361 3.4145 10.434 3.57422 10.5937C3.73394 10.7535 3.93186 10.8333 4.16797 10.8333ZM14.168 4.99999C14.4041 4.99999 14.602 4.92013 14.7617 4.76041C14.9214 4.60068 15.0013 4.40277 15.0013 4.16666C15.0013 3.93055 14.9214 3.73263 14.7617 3.57291C14.602 3.41318 14.4041 3.33332 14.168 3.33332C13.9319 3.33332 13.7339 3.41318 13.5742 3.57291C13.4145 3.73263 13.3346 3.93055 13.3346 4.16666C13.3346 4.40277 13.4145 4.60068 13.5742 4.76041C13.7339 4.92013 13.9319 4.99999 14.168 4.99999Z" fill="#000E32"/>
</svg>
