<svg width="26" height="30" viewBox="0 0 26 30" fill="none" xmlns="http://www.w3.org/2000/svg">
<path d="M13.124 14.8774C13.2045 14.5504 13.446 13.2834 14.372 8.74659C15.7407 2.24795 17.2705 0.940054 19.1224 0.20436V0C17.3913 0 15.8212 0 13.6071 0C4.62963 0 2.73752 2.0436 1.3285 8.74659L0 15H12.9227C12.8422 15.327 12.6006 16.594 11.6345 21.2534C10.2657 27.752 8.93719 28.8556 6.88406 29.7956V30C8.57488 30 10.2657 30 12.4799 30C21.4573 30 23.2689 27.9564 24.6779 21.2534L26.0064 14.8774H13.124Z" fill="#DBE0E4"/>
</svg>
