<svg width="61" height="70" viewBox="0 0 61 70" fill="none" xmlns="http://www.w3.org/2000/svg">
<path d="M30.6226 34.7139C30.8105 33.9509 31.3741 30.9945 33.5346 20.4087C36.7284 5.24523 40.2979 2.19346 44.6189 0.476839V0C40.5797 0 36.9162 0 31.7498 0C10.8025 0 6.38754 4.76839 3.09984 20.4087L0 35H30.153C29.9651 35.7629 29.4015 38.7193 27.1471 49.5913C23.9533 64.7548 20.8535 67.3297 16.0628 69.5232V70C20.008 70 23.9533 70 29.1197 70C50.0671 70 54.2941 65.2316 57.5818 49.5913L60.6817 34.7139H30.6226Z" fill="white"/>
</svg>
