<svg width="40" height="40" viewBox="0 0 40 40" fill="none" xmlns="http://www.w3.org/2000/svg">
<circle cx="20" cy="20" r="20" fill="#F4F8FB"/>
<g clip-path="url(#clip0_6384_11554)">
<path d="M24.9997 27.5003L28.333 24.167L27.1663 23.0003L25.833 24.3337V20.8545H24.1663V24.3337L22.833 23.0003L21.6663 24.167L24.9997 27.5003ZM21.6663 30.0003V28.3337H28.333V30.0003H21.6663ZM14.9997 26.667C14.5413 26.667 14.149 26.5038 13.8226 26.1774C13.4962 25.851 13.333 25.4587 13.333 25.0003V13.3337C13.333 12.8753 13.4962 12.483 13.8226 12.1566C14.149 11.8302 14.5413 11.667 14.9997 11.667H20.833L25.833 16.667V19.1878H24.1663V17.5003H19.9997V13.3337H14.9997V25.0003H19.9997V26.667H14.9997Z" fill="#4B556F"/>
</g>
<defs>
<clipPath id="clip0_6384_11554">
<rect width="20" height="20" fill="white" transform="translate(10 10)"/>
</clipPath>
</defs>
</svg>
