<svg width="19" height="18" viewBox="0 0 19 18" fill="none" xmlns="http://www.w3.org/2000/svg">
<path d="M14.4922 9C14.4922 7.5375 13.9828 6.29688 12.9641 5.27813C11.9453 4.25938 10.7047 3.75 9.24219 3.75V2.25C10.1797 2.25 11.0578 2.42813 11.8766 2.78438C12.6953 3.14063 13.4078 3.62188 14.0141 4.22813C14.6203 4.83438 15.1016 5.54688 15.4578 6.36563C15.8141 7.18438 15.9922 8.0625 15.9922 9H14.4922ZM11.4922 9C11.4922 8.375 11.2734 7.84375 10.8359 7.40625C10.3984 6.96875 9.86719 6.75 9.24219 6.75V5.25C10.2797 5.25 11.1641 5.61563 11.8953 6.34688C12.6266 7.07812 12.9922 7.9625 12.9922 9H11.4922ZM15.2047 15.75C13.6422 15.75 12.0984 15.4094 10.5734 14.7281C9.04844 14.0469 7.66094 13.0813 6.41094 11.8313C5.16094 10.5813 4.19531 9.19375 3.51406 7.66875C2.83281 6.14375 2.49219 4.6 2.49219 3.0375C2.49219 2.8125 2.56719 2.625 2.71719 2.475C2.86719 2.325 3.05469 2.25 3.27969 2.25H6.31719C6.49219 2.25 6.64844 2.30937 6.78594 2.42813C6.92344 2.54688 7.00469 2.6875 7.02969 2.85L7.51719 5.475C7.54219 5.675 7.53594 5.84375 7.49844 5.98125C7.46094 6.11875 7.39219 6.2375 7.29219 6.3375L5.47344 8.175C5.72344 8.6375 6.02031 9.08438 6.36406 9.51563C6.70781 9.94688 7.08594 10.3625 7.49844 10.7625C7.88594 11.15 8.29219 11.5094 8.71719 11.8406C9.14219 12.1719 9.59219 12.475 10.0672 12.75L11.8297 10.9875C11.9422 10.875 12.0891 10.7906 12.2703 10.7344C12.4516 10.6781 12.6297 10.6625 12.8047 10.6875L15.3922 11.2125C15.5672 11.2625 15.7109 11.3531 15.8234 11.4844C15.9359 11.6156 15.9922 11.7625 15.9922 11.925V14.9625C15.9922 15.1875 15.9172 15.375 15.7672 15.525C15.6172 15.675 15.4297 15.75 15.2047 15.75ZM4.76094 6.75L5.99844 5.5125L5.67969 3.75H4.01094C4.07344 4.2625 4.16094 4.76875 4.27344 5.26875C4.38594 5.76875 4.54844 6.2625 4.76094 6.75ZM11.4734 13.4625C11.9609 13.675 12.4578 13.8438 12.9641 13.9688C13.4703 14.0938 13.9797 14.175 14.4922 14.2125V12.5625L12.7297 12.2063L11.4734 13.4625Z" fill="#000E32"/>
</svg>
