<svg width="257" height="40" viewBox="0 0 257 40" fill="none" xmlns="http://www.w3.org/2000/svg">
<path d="M18.0228 19.8365C18.1334 19.4005 18.4651 17.7112 19.7366 11.6621C21.6163 2.99727 23.7171 1.25341 26.2602 0.27248V0C23.883 0 21.7269 0 18.6862 0C6.35774 0 3.75936 2.72479 1.8244 11.6621L0 20H17.7464C17.6358 20.436 17.3041 22.1253 15.9773 28.3379C14.0976 37.0027 12.2732 38.4741 9.45368 39.7275V40C11.7756 40 14.0976 40 17.1382 40C29.4667 40 31.9546 37.2752 33.8895 28.3379L35.7139 19.8365H18.0228Z" fill="#02295C"/>
<path d="M76.2376 11.989L77.7303 5.01355H56.9986L50.5303 35.0408H59.21L61.3661 25.0135H70.6539L72.1466 18.3106H62.8035L64.1856 11.989H76.2376Z" fill="#02295C"/>
<path d="M94.813 4.57767C84.8618 4.52318 76.9561 12.3706 76.8455 23.4878C76.7349 30.6267 81.8211 35.4224 89.5057 35.4224C99.5122 35.4224 107.363 27.575 107.529 16.5123C107.639 9.20983 102.553 4.63217 94.813 4.57767ZM90.5008 28.2834C87.7919 28.2834 85.8016 26.1581 85.9122 22.7793C86.0228 18.2562 88.4553 11.7711 93.9285 11.7711C96.5821 11.7711 98.5724 13.842 98.5171 17.2752C98.4065 21.8529 95.974 28.2834 90.5008 28.2834Z" fill="#02295C"/>
<path d="M139.704 5.01355H129.974L123.174 13.9509L119.857 5.01355H110.514L116.208 19.6185L103.106 35.0408H113.444L120.963 24.9591L124.888 35.0408H134.452L127.763 19.455L139.704 5.01355Z" fill="#02295C"/>
<path d="M252.651 13.1334C252.651 8.11982 248.228 5.01355 241.871 5.01355H229.763L223.295 34.9863H231.809L233.854 25.4495C234.131 25.4495 234.352 25.4495 234.628 25.4495L239.217 34.9863H249.389L242.7 24.6321C248.173 23.0517 252.651 18.9645 252.651 13.1334ZM236.84 11.2261H238.94C241.484 11.2261 243.529 12.1525 243.529 14.3868C243.529 17.6566 240.378 19.5095 236.729 19.5095H235.015L236.84 11.2261Z" fill="#02295C"/>
<path d="M204.664 5.01355L188.797 34.9863H198.306L200.131 31.0626H210.58L210.856 34.9863H220.199L216.771 5.01355H204.664ZM202.895 25.0135L209.142 11.4986L210.082 25.0135H202.895Z" fill="#02295C"/>
<path d="M176.303 22.9427H186.475L187.857 16.4577H177.685L178.736 11.8255H191.451L193.165 5.01355H171.493L165.025 35.0408H185.093L188.631 28.2288H175.142L176.303 22.9427Z" fill="#02295C"/>
<path d="M155.516 11.9345C158.833 11.9345 160.16 11.9345 163.809 11.9345L165.301 5.01355C162.427 5.01355 160.602 5.01355 155.074 5.01355C143.796 5.01355 136 14.1144 136 23.3787C136 30.5176 141.253 34.9863 148.384 34.9863H159.718L163.477 17.3841H152.807L149.49 23.3787H154.963L153.857 28.1743H151.425C147.168 28.1743 144.625 26.049 144.625 22.1798C144.68 16.3487 149.103 11.9345 155.516 11.9345Z" fill="#02295C"/>
</svg>
